<?xml version="1.0" encoding="utf-8"?>
<!-- Generator: Adobe Illustrator 18.0.0, SVG Export Plug-In . SVG Version: 6.00 Build 0)  -->
<!DOCTYPE svg PUBLIC "-//W3C//DTD SVG 1.1//EN" "http://www.w3.org/Graphics/SVG/1.1/DTD/svg11.dtd">
<svg version="1.1" id="Layer_1" xmlns="http://www.w3.org/2000/svg" xmlns:xlink="http://www.w3.org/1999/xlink" x="0px" y="0px"
	 viewBox="0 0 310 80" enable-background="new 0 0 310 80" xml:space="preserve">
<g id="Short_Sleeve_Shirt">
</g>
<g>
	<g>
		<path fill="#1183C6" d="M64.9,46.9c-0.5-8.8-21.7,4.5-24.3,4.7c-0.1-2.8,2.3-5.8,3.8-8.1c1.9-3.2,3.4-6.6,5.2-9.9
			c2.6-5,5.6-10,8.6-14.8c2.2-3.6,5.5-8.9,3.8-13.2c-2.2-5.6-8.7-3-13.3-3c-3.9,0-7.8,1.2-11.7,1.3c-6,0.2-12.1,2.4-18.1,2.4
			C11.9,6.4,4.3,10,6.6,18.1c0.7,2.4,2.1,9.9,4,10.8c2.1,1.4,4.7,0.2,6.6-0.8c6.7-3.4,16.2-7.8,23.8-6.6c-0.8,2.2-5.6,5.3-7.4,6.9
			c-2.7,2.4-5.5,4.7-8.1,7.3c-4.9,4.9-10.3,9.2-14.9,14.4C8,52.9,0.3,60,6.9,63.1c4.1,1.9,10,4.5,14.5,5c8.8,1.1,16.8,7,25.4,9.4
			c7.9,2,10.3-4.4,12.5-10.8c1.2-3.4,2-6.9,3.1-10.4C63.3,53.2,65.1,50.2,64.9,46.9C64.9,46.8,64.9,47.2,64.9,46.9z"/>
		<path fill="#1183C6" d="M72.6,72.5c-3-0.3-8.4-0.5-8.1-4.5c0.3-3.9,3.7-18.3,4.4-21.4c0.9-4.2,3-21.4,5.4-29.2
			c0.7-2.2,1.5-3.7,2.7-4c1.8-0.4,34.3-0.5,36.9,0.2c5.2,0.7,2.2,6.7-0.7,8.2c-2.2,1.2-4.8,1.8-7.1,2.6c-3.2,1.1-14.2,5.3-16.4,6.1
			C88.4,30.9,88.4,34,89,35c0.8,1.3,3.6,0.4,4.3,0.3c2.8-0.1,5.1-0.2,7.5,1.7c3.3,3-1,9-4.6,9.4c-1.7,0.2-3.5,0.5-5.2,0.6
			c-1.9,0.1-3.7-1-5.1,0.5c-0.8,0.8-3,9.4-1.8,10.2c1.2,1.8,13.9-3.1,17.3-3.4c2.1-0.2,5.8-1.2,6.7,1.6c1.5,2-0.4,5.7-1.1,7.7
			c-1.7,4.9-4.5,8.9-10.1,9.5C92.2,73.6,76,72.8,72.6,72.5z"/>
		<path fill="#1183C6" d="M249.7,17.2c-5-9.9-25.2-9.9-33.8-5.9c-8.3,3.8-12.4,9.9-13.5,18.9c-1.1,9.4-2,20.2,0.7,29.4
			c3.6,12.5,15.6,21.4,28.1,13.9c8-4.8,11.7-14.7,15.2-22.9C250.2,41.9,255.7,25.6,249.7,17.2C249.6,17.1,251.7,20,249.7,17.2z
			 M229.8,50c-4.9,3-10.7,0.4-12.1-3.1c-1.5-3.8,4.2-18,11.1-17.5C236.2,29.9,234.3,47.2,229.8,50z"/>
		<path fill="#1183C6" d="M200.4,15.6c-1.3-6.4-12.8-6.8-17.8-8.1c-4.5-1.1-9.1-2-13.7-2.3c-5-0.3-12.1-2.7-14.9,3
			c-1.3,2.7-1.8,6-2.4,8.9c-0.7,3.2-2.2,9.2,3.2,8.5c4.9-0.6,9.9-1.4,14.8-1.8c3.5-0.3,7-1.2,10.5-1.3c1.7-0.1,3.2-0.3,4.9-0.2
			c0.5,1.7-1.3,4.3-2.3,5.5c-4.9,6-9.7,12.4-16.5,16.5c-2.6,1.6-5.2,2.9-7.7,4.7c-1.3,1-2.8,2.3-4,3.5c-1.3,1.4-1.3,4.5-1.8,6.2
			c-0.7,2.7-2.7,9.1,0.4,10.8c1.6,0.9,3.8,0.7,5.5,0.9c2.4,0.3,4.6,0.9,7,0.9c7.8,0.2,14.9,2.4,22.4,3.8c5.1,0.9,6.8-4.8,7.9-8.9
			c0.7-2.9,2.4-5.7,3-8.7c1.2-5.9-17.3-5.5-19.9-5.2c4.3-5.9,7.9-12.1,11.5-18.5c1.7-3.1,3.1-6.5,4.8-9.5c0.8-1.4,1.5-2.7,2.4-4.1
			C198.4,19.2,200.7,17,200.4,15.6z"/>
		<path fill="#1183C6" d="M116,74.7c-0.6,0-3.7-0.2-4.7-1c-1.7-1.4-1.1-4.8-0.6-6.7c0.9-3.7,1.4-7.5,2.3-11.2
			c2.5-10.6,4.3-21.6,7.4-32.1c0.7-2.4,2.5-12.3,6.3-11.7c5.6,0.6,11.5-0.6,17.1,0.9c3.8,1,4.5,3.8,4,7.4c-0.4,2.8-0.6,9.4-4.9,9.4
			c-3.4,0-6.5-1-9.9-0.7c-2.4,0.2-3.9,7.2-3.8,9c2.3-0.1,5.4-0.7,7.6,0.4c1.9,1,0.4,7.2-0.8,8.4c-2,2.1-6.7,0.2-8.4,2.2
			c-0.9,1.1,0,7.4-0.1,7.7c3.1-1.4,6.8-2.1,10.1-3.1c2.4-0.7,6.4-2.9,9-1.6c2.1,1.1,2.2,14.2,0.5,16.2c-1.7,2.1-3.3,2.7-6.1,2.9
			C138.5,71.4,119,74.7,116,74.7z"/>
		<path fill="#1183C6" d="M304.7,24.4C301.4,12,286.9,6.5,275.1,8.2c-8,1.1-15,3.6-16.9,12.5c-0.9,4.2-11.3,49.2-10.5,51.7
			c1.4,4.9,9.7,5.4,13.7,5.4c6.4,0,14,0.8,14.6-7.6c-0.4-6-0.9-11.7-1.7-17.6c7,0.1,15.8,0.5,22.2-2.7
			C305.6,45.7,307,32.8,304.7,24.4C304.6,23.8,305.6,27.4,304.7,24.4z M285.8,34.7c-8.6,0-6.6-13.8,1.7-11.3
			C293.6,25.2,292.4,34.7,285.8,34.7z"/>
	</g>
</g>
</svg>
